<?xml version="1.0" standalone="no"?><!DOCTYPE svg PUBLIC "-//W3C//DTD SVG 1.1//EN" "http://www.w3.org/Graphics/SVG/1.1/DTD/svg11.dtd"><svg class="icon" height="512" viewBox="0 0 2781 1024" version="1.1" xmlns="http://www.w3.org/2000/svg"><path d="M481.842 235.122H257.628c-50.716 0-89.67 38.878-89.67 89.327v62.211h-60.455c-50.716 0-89.67 38.916-89.67 89.403v223.488c0 50.488 38.954 89.365 89.67 89.365H329.77c50.678 0 89.709-38.877 89.709-89.365v-64.159h62.364c50.678 0 89.67-38.877 89.67-89.403V322.54c1.986-46.668-38.954-87.417-89.67-87.417z m23.41 312.853a23.678 23.678 0 0 1-23.372 23.258H355.09v128.242a23.678 23.678 0 0 1-23.373 23.296H107.503a23.678 23.678 0 0 1-23.41-23.296V476.063a23.678 23.678 0 0 1 23.41-23.334h126.715v-128.28c0-13.558 11.686-23.258 23.41-23.258h224.214a23.678 23.678 0 0 1 23.372 23.258v223.526z" fill="#8FBE48" /><path d="M296.62 361.417v145.695H146.495v149.59H296.62V511.045h150.087V361.417z" fill="#F2B624" /><path d="M1468.193 430.484s-10.48-87.326-108.285-89.073c0 0-55.888-6.986-106.538 43.663 0 0-27.944-43.663-92.565-43.663-64.622 0-103.045 43.663-103.045 43.663s-29.691-43.663-89.073-43.663-85.58 38.424-97.805 61.128l-68.115 164.174-83.833-197.358s-17.465-38.423-59.382-24.45c-41.916 13.971-26.198 59.38-24.451 61.127l115.27 249.753s12.226 26.198 50.65 26.198 48.902-26.198 59.382-45.41 97.805-209.582 97.805-209.582 17.465-8.733 24.451 6.986v206.09s5.24 41.916 41.917 41.916 48.902-22.705 52.395-41.916c3.494-19.212 0-176.4 0-176.4s6.987-41.916 50.65-41.916 48.902 43.663 48.902 43.663v171.16s3.493 43.663 48.903 43.663c47.156 0 47.156-41.917 47.156-41.917V463.668s3.493-41.917 52.396-41.917c0 0 38.423-3.493 48.902 43.663v174.653s6.987 41.916 48.903 41.916 43.663-34.93 45.41-43.663c1.746-12.226 0-207.836 0-207.836z m151.947 169.413l-82.086-237.528s-6.986-22.705-31.438-13.972c0 0-17.465 5.24-13.972 27.944l103.045 288.177s5.24 13.972 22.705 13.972c0 0 13.972 1.747 24.451-13.972l83.833-237.527 78.594 223.555s10.479 27.944 29.69 27.944 29.692-26.198 31.438-31.437c1.747-3.493 97.805-268.965 97.805-268.965s8.733-19.212-10.479-27.944-31.437 5.24-34.93 15.718c-3.493 10.48-83.833 234.035-83.833 234.035l-83.833-239.274s-6.987-15.719-24.452-13.972c-17.465 0-24.451 17.465-26.198 26.197-3.493 8.733-80.34 227.049-80.34 227.049z m457.59 43.663c-40.17-3.493-83.834-47.157-61.129-89.073 22.705-43.663 75.1-43.663 108.285-41.917 33.184 1.747 78.593 13.973 78.593 13.973 6.986 111.777-85.58 118.763-125.75 117.017z m87.326-289.923c-85.58-17.466-144.962 10.479-153.694 13.972-6.987 3.493-15.72 15.719-6.987 29.69 8.733 13.973 26.198 5.24 26.198 5.24 50.65-20.958 113.524-17.465 146.708 8.733s22.705 76.847 22.705 76.847c-69.86-17.465-103.045-13.972-103.045-13.972-99.552 0-136.229 57.635-134.482 110.03 1.746 52.397 55.889 106.539 130.99 97.806s108.284-55.889 108.284-55.889v31.438c0 1.746 0 20.958 20.958 20.958s22.705-20.958 22.705-20.958v-195.61c-3.493-89.074-80.34-108.285-80.34-108.285z m141.468 13.972v289.923s3.493 19.212 24.451 19.212 22.705-19.212 22.705-20.959V514.317s10.48-108.285 115.27-118.764c0 0 19.213-1.746 19.213-22.705s-17.466-26.197-24.452-26.197c-5.24 0-68.114 3.493-110.03 78.593V367.61s-1.747-19.212-24.452-19.212-22.705 19.212-22.705 19.212z m225.302 127.496s8.732-110.03 106.538-110.03c90.819 0 97.805 110.03 97.805 110.03h-204.343z m103.044-148.454s-103.044-8.733-143.214 115.27c0 0-13.973 68.115 5.24 118.764 0 0 33.183 94.312 143.214 99.552 0 0 80.34 6.986 127.496-54.143 0 0 5.24-8.732-1.746-20.958s-20.959-12.226-29.691-5.24c-8.733 6.987-33.184 41.917-96.059 38.424-59.382-1.746-106.538-50.65-108.284-108.284h232.287s15.719 0 17.465-19.212-5.24-164.173-146.708-164.173z" fill="" /></svg>