<?xml version="1.0" encoding="utf-8"?>
<!-- Generator: Adobe Illustrator 16.0.0, SVG Export Plug-In . SVG Version: 6.00 Build 0)  -->
<!DOCTYPE svg PUBLIC "-//W3C//DTD SVG 1.1//EN" "http://www.w3.org/Graphics/SVG/1.1/DTD/svg11.dtd">
<svg version="1.1" id="Layer_1" xmlns="http://www.w3.org/2000/svg" xmlns:xlink="http://www.w3.org/1999/xlink" x="0px" y="0px"
	 width="1600px" height="283.871px" viewBox="0 0 1600 283.871" enable-background="new 0 0 1600 283.871" xml:space="preserve">
<g>
	<g>
		<path fill="#F05423" d="M166.774,283.871H97.419c-14.194,0-27.419-7.742-34.516-20.322L5.484,162.258
			c-7.097-12.258-7.097-28.065,0-40.323L63.226,20.322C70.645,8.064,83.549,0,97.42,0h116.129c14.194,0,27.419,7.741,34.516,20.321
			l58.064,101.613c7.097,12.258,7.097,28.065,0,40.323l-14.839,23.871c-7.097,12.258-20.322,20-34.516,20h-69.032l37.742-64.517
			l-35.161-60.646h-69.678l-34.838,61.29L166.774,283.871L166.774,283.871z"/>
		<g>
			<g>
				<path d="M414.839,207.42h-32.258V81.613h45.806c29.032,0,47.099,13.548,47.099,40c0,29.354-20.969,43.872-50.97,43.872h-9.354
					v41.936H414.839L414.839,207.42z M421.936,140.322c12.58,0,20.322-3.548,20.322-16.772c0-12.581-6.772-16.452-18.387-16.452
					h-9.032V140C414.839,140.322,421.936,140.322,421.936,140.322z"/>
				<path d="M526.129,81.613v81.936c0,14.516,7.098,18.709,17.42,18.709c10,0,16.451-5.807,16.451-17.74V81.614h32.258v87.097
					c0,25.482-20.322,40.645-49.354,40.645c-32.258,0-48.71-13.225-48.71-43.869V81.615h31.935V81.613z"/>
				<path d="M729.678,81.613h81.29V110h-49.354v19.031h42.258v28.388h-42.258v21.611h50.645v28.389h-82.58L729.678,81.613
					L729.678,81.613z"/>
				<path d="M843.871,185.807c5.807,4.193,19.354,10.967,33.549,10.967c12.58,0,26.129-4.191,26.129-23.225
					c0-14.84-12.902-20-28.388-23.871c-18.064-4.84-35.483-11.937-35.483-34.839C839.678,93.87,855.807,80,879.032,80
					c17.097,0,31.29,8.063,40.323,16.773l-8.065,10c-10-8.71-20.646-14.193-32.258-14.193c-10.322,0-23.871,4.517-23.871,20.322
					c0,14.839,12.581,19.354,28.71,23.871c17.097,5.483,34.839,12.258,34.839,35.807s-15.807,36.773-41.613,36.773
					c-18.063,0-34.516-7.098-39.354-11.291L843.871,185.807z"/>
				<path d="M1023.227,81.613v13.227h-37.741v112.903h-14.518V94.838h-37.097V82.257h89.678v-0.646L1023.227,81.613L1023.227,81.613
					z"/>
				<path d="M1083.226,209.678c-31.936,0-50.968-21.613-50.968-64.84c0-48.387,27.742-65.161,52.903-65.161
					c26.773,0,50.323,17.097,50.323,65.161C1135.161,188.064,1115.161,209.678,1083.226,209.678z M1084.517,197.096
					c26.773,0,35.483-25.807,35.483-51.611c0-22.259-7.097-52.903-35.807-52.903c-27.419,0-37.098,26.129-37.098,51.936
					C1047.097,169.031,1053.549,197.096,1084.517,197.096z"/>
				<path d="M1255.484,207.42l43.869-125.485h17.421l44.839,125.485h-15.808l-13.549-38.389h-48.387l-13.549,38.389
					C1270.646,207.42,1255.484,207.42,1255.484,207.42z M1287.097,156.773h41.937c-20.968-61.29-20.968-61.29-20.968-61.29
					L1287.097,156.773z"/>
				<path d="M1461.613,198.064c-10.323,6.773-25.162,11.289-41.291,11.289c-32.58,0-52.902-20.967-52.902-64.838
					c0-49.032,28.387-65.162,52.902-65.162c12.581,0,29.031,4.194,41.613,20.323l-10.646,8.709
					c-8.064-10-18.064-15.807-31.29-15.807c-23.871,0-37.742,19.354-37.742,51.29c0,33.871,12.259,53.871,39.032,53.871
					c10,0,20.646-3.549,25.161-6.773v-37.742h-27.741v-12.58h42.58L1461.613,198.064L1461.613,198.064z"/>
				<path d="M1487.097,81.613h69.354v13.227h-54.838v42.258h47.097v12.581h-47.097v44.84h56.451v12.58h-70.969L1487.097,81.613
					L1487.097,81.613z"/>
				<path d="M1226.129,168.064c-2.58-6.451-4.516-9.354-8.387-11.291c13.871-6.451,22.258-18.709,22.258-37.096
					c0-24.518-15.807-37.742-41.613-37.742h-40.321V207.42h14.839v-46.131h21.613c1.289,0,3.226,0,4.516,0l0,0
					c7.742,0,11.29,4.84,14.193,11.936l15.807,34.518h15.807L1226.129,168.064z M1190.968,149.031h-18.71V94.193h16.129
					c20.97,0,35.808,2.259,35.808,27.098C1224.839,141.613,1210.968,149.031,1190.968,149.031z"/>
				<path d="M696.451,167.42c-1.937-4.518-4.838-8.066-8.064-10c11.613-7.1,18.71-19.034,18.71-36.131c0-26.129-18.063-40-47.097-40
					h-45.807v125.485h32.258V165.16h8.063c4.518,0.322,7.099,2.58,9.033,7.098l15.161,34.516h34.516L696.451,167.42z
					 M647.097,140.322v-32.902h9.032c11.613,0,18.387,3.549,18.387,16.451c0,13.227-7.74,16.774-20.321,16.774
					C654.193,140.322,647.097,140.322,647.097,140.322z"/>
			</g>
			<g>
				<path d="M1583.549,111.935c-9.355,0-16.452-7.097-16.452-16.774c0-10,7.742-16.773,16.452-16.773
					c8.709,0,16.451,6.773,16.451,16.773C1599.678,105.161,1591.936,111.935,1583.549,111.935z M1583.549,80.967
					c-7.098,0-12.904,5.807-12.904,14.192c0,7.742,4.84,14.193,12.904,14.193c7.096,0,12.902-5.806,12.902-14.193
					C1596.129,86.451,1590.645,80.967,1583.549,80.967z M1580,104.516h-3.227v-18.71h7.098c4.516,0,6.773,1.29,6.773,5.482
					c0,3.228-2.259,4.84-4.838,4.84l5.483,8.063h-3.549l-4.839-8.063h-2.581v8.388H1580L1580,104.516z M1583.549,93.871
					c2.258,0,4.516-0.321,4.516-2.58s-2.258-2.58-4.192-2.58h-4.193v5.482h3.871L1583.549,93.871L1583.549,93.871z"/>
			</g>
		</g>
	</g>
</g>
</svg>
