<svg xmlns="http://www.w3.org/2000/svg" viewBox="0 0 1478.25 420.04"><defs><style>.cls-1{fill:#646565;}.cls-2{fill:#4e9ed7;}.cls-3{fill:#217da9;}.cls-4{fill:#fddd00;}.cls-5{fill:#b9d432;}.cls-6{fill:none;}.cls-7{fill:#4c9ed7;}.cls-8{fill:#4b99d3;}.cls-9{fill:#f3ea1a;}.cls-10{fill:#46a347;}.cls-11{fill:#97ca3e;}</style></defs><title>ITLogia LOGO 2020 Color</title><g id="Layer_2" data-name="Layer 2"><g id="Layer_1-2" data-name="Layer 1"><path class="cls-1" d="M507.18,140.19h51.2a1.42,1.42,0,0,1,1.42,1.43V271.77a1.43,1.43,0,0,0,1.43,1.43H584a1.42,1.42,0,0,1,1.43,1.42V298.8a1.43,1.43,0,0,1-1.43,1.42h-76.8a1.43,1.43,0,0,1-1.43-1.42V273.2a1.43,1.43,0,0,1,1.43-1.43h23.46a1.43,1.43,0,0,0,1.43-1.42V172.2a1.42,1.42,0,0,0-1.43-1.42H507.18a1.43,1.43,0,0,1-1.43-1.43V141.62A1.43,1.43,0,0,1,507.18,140.19Z"/><circle class="cls-1" cx="544.51" cy="85.78" r="18.85"/><circle class="cls-1" cx="1249.35" cy="87.92" r="18.85"/><path class="cls-1" d="M610.3,116.72l31.3-28.45v50.5a1.43,1.43,0,0,0,1.42,1.42h24.89a1.43,1.43,0,0,1,1.43,1.43v26.31a1.42,1.42,0,0,1-1.43,1.42H643.73a1.43,1.43,0,0,0-1.42,1.43v87.48c-1.07,10.94,1.83,17.08,9.24,17.78a76.24,76.24,0,0,0,17.25-2.31,2.15,2.15,0,0,1,2.75,2l.6,22.51a2.15,2.15,0,0,1-1.11,1.93,28.34,28.34,0,0,1-12.2,3.81,86.35,86.35,0,0,1-10.54.56H646c-19.5.17-35.25-15.79-35.69-35.28,0-.34,0-.68,0-1V171.49a1.42,1.42,0,0,0-1.42-1.42H593.24a1.43,1.43,0,0,1-1.43-1.43v-27a1.43,1.43,0,0,1,1.43-1.43h16.3a1.43,1.43,0,0,0,1.43-1.47Z"/><path class="cls-1" d="M698.75,74.05h57.53a1.43,1.43,0,0,1,1.43,1.42v197a3.56,3.56,0,0,0,3.56,3.56h17.59a1.43,1.43,0,0,1,1.43,1.43v25.12a1.43,1.43,0,0,1-1.43,1.43H699.21a1.43,1.43,0,0,1-1.43-1.43V277.64a1.43,1.43,0,0,1,1.43-1.42h23.93a3.57,3.57,0,0,0,3.57-3.57V103.93a2.86,2.86,0,0,0-2.85-2.86h-25a1.42,1.42,0,0,1-1.42-1.41l-.16-24.18A1.42,1.42,0,0,1,698.75,74.05Z"/><path class="cls-1" d="M1209.17,145V170.3a1.42,1.42,0,0,0,1.42,1.42h23.47a1.43,1.43,0,0,1,1.42,1.43V275.56a1.43,1.43,0,0,1-1.42,1.43H1211.3a1.43,1.43,0,0,0-1.42,1.42v24.42a1.43,1.43,0,0,0,1.42,1.42h77.76a1.43,1.43,0,0,0,1.43-1.42V277.94a1.43,1.43,0,0,0-1.43-1.43h-21.81a1.42,1.42,0,0,1-1.42-1.42V144.94a1.43,1.43,0,0,0-1.43-1.43l-53.81.08A1.42,1.42,0,0,0,1209.17,145Z"/><path class="cls-1" d="M1187.07,144.55l-55.91.3a1.43,1.43,0,0,0-1.42,1.42l0,16.44a2.13,2.13,0,0,1-3.67,1.48c-13.61-14.34-32.92-23.39-57.62-23.13-47.27.5-76.66,43.07-76.66,88.83s35.42,80.76,77.13,80.76c21.25,0,41.83-9.36,56.93-24.59a2.14,2.14,0,0,1,3.66,1.5l0,26.41a8.44,8.44,0,0,1-.37,2.49c-13,41.27-61.32,44.18-96.92,21.41a1.41,1.41,0,0,0-1.83.25l-17.57,19.71A1.44,1.44,0,0,0,1013,360c64.24,45.09,141.91,12.27,144.58-44.71V171.89a1.43,1.43,0,0,1,1.43-1.43h28.07a1.43,1.43,0,0,0,1.42-1.39l0-23.06A1.43,1.43,0,0,0,1187.07,144.55ZM1076.48,282.84c-29.15,0-53-24.9-53-54.06s19.76-58.32,52.79-58.64c32.19-.3,49.3,21.46,53.29,46.25l0,21.44C1124.76,262.69,1102.3,282.84,1076.48,282.84Z"/><path class="cls-1" d="M1476.83,277h-23.07a1.43,1.43,0,0,1-1.43-1.43V185.63c-3.09-60.44-102-60-128.77-11.9a1.43,1.43,0,0,0,.82,2.06l25.64,8a1.44,1.44,0,0,0,1.53-.47c19-23.19,49.86-27,68.35-3.7a19.91,19.91,0,0,1,4.27,11.91l.48,22.8a2.85,2.85,0,0,1-4.75,2.18c-9-8.11-22.1-13.12-39.68-13.12-37,0-61.41,25.36-61.41,52.12s20,52.44,57,52.44c19.86,0,35.32-8.29,45.4-20.1a2.85,2.85,0,0,1,5,1.77l.28,13A1.43,1.43,0,0,0,1428,304h48.86a1.43,1.43,0,0,0,1.42-1.43V278.41A1.43,1.43,0,0,0,1476.83,277Zm-97.91,5.77c-21.54,0-30.43-11.4-30.43-26.95s11.26-27.66,32.8-27.66c17.75,0,35.48,6.07,41.36,17.83a1.45,1.45,0,0,1,.15.62l.29,13.71a1.29,1.29,0,0,1-.13.64C1417.15,273.69,1397.15,282.76,1378.92,282.76Z"/><path class="cls-1" d="M886,310.18a84.29,84.29,0,1,1,84.29-84.28A84.38,84.38,0,0,1,886,310.18Zm0-138.26a54,54,0,1,0,54,54A54,54,0,0,0,886,171.92Z"/><circle class="cls-2" cx="63.12" cy="194.46" r="13.72"/><circle class="cls-2" cx="63.13" cy="246.6" r="17.25"/><circle class="cls-2" cx="8.62" cy="360.29" r="8.62"/><circle class="cls-2" cx="116.08" cy="295.64" r="37.28"/><circle class="cls-3" cx="203.47" cy="12.94" r="12.94"/><circle class="cls-3" cx="240.31" cy="33.72" r="8.62"/><circle class="cls-3" cx="179.95" cy="59.59" r="20.78"/><circle class="cls-3" cx="244.67" cy="96.48" r="37.28"/><circle class="cls-4" cx="303.83" cy="386.95" r="16.6"/><circle class="cls-4" cx="244.67" cy="353.66" r="37.28"/><circle class="cls-4" cx="186.65" cy="396.67" r="23.37"/><circle class="cls-4" cx="156.41" cy="358.7" r="12.57"/><circle class="cls-2" cx="42.73" cy="335.2" r="22.35"/><circle class="cls-5" cx="392.47" cy="200.37" r="19.72"/><circle class="cls-5" cx="415.15" cy="157.98" r="14.27"/><circle class="cls-5" cx="375.19" cy="320.69" r="25.96"/><path class="cls-6" d="M198.77,131.92C180.93,137.5,143,172.32,142.51,225c-.36,41.94,25.88,65.12,43.21,77.88A31.08,31.08,0,0,0,205.88,309c33.07-1.92,85.59-34.27,115.59-76.3a14.06,14.06,0,0,0,.83-15C290.24,160.48,222.41,123.48,198.77,131.92Z"/><path class="cls-7" d="M349,178c6.17-25.85,3.66-41.36-10.47-52.83C321.51,111.32,299,105,270.11,106.51q10.81,8.7,20.43,17.12C321.58,135.42,346.29,153.21,349,178Z"/><path class="cls-8" d="M134.9,158.62c1.38-4.14,2.92-8.22,4.59-12.24,0-.24.11-.48.16-.72a103.91,103.91,0,0,0-28.05,20c-16.24,16.39-19.68,30.59-10.74,54.84a166.74,166.74,0,0,0,10,22,111.59,111.59,0,0,1,3.22-13.07Z"/><path class="cls-8" d="M191,330.94c30.6,29.67,70.49,35.54,96.11,4.61a70.23,70.23,0,0,0,11.3-19.63l1.12-2.91c-2.14.14-4.36.22-6.69.23C265.35,325.72,219.83,329.84,191,330.94Z"/><path class="cls-9" d="M133.45,274.57a173.27,173.27,0,0,1-22.56-32c-5.75,31.31,3.61,59.45,28.29,72.29C133.65,304.72,132.86,290.67,133.45,274.57Z"/><path class="cls-9" d="M241.14,110.29a207.62,207.62,0,0,1,29-3.78q-5-4-10.17-8.07a107,107,0,0,0-34.46-18.06c-22.6-6.9-37.11-3.24-54.81,16.43a168.42,168.42,0,0,0-13.52,17.13c7.24-5.64,16.92-8.87,29.85-8.87A314.19,314.19,0,0,1,241.14,110.29Z"/><path class="cls-9" d="M346.66,182.1a262.82,262.82,0,0,1-8,29.44q-2.34,6.59-5.05,13.8a26.52,26.52,0,0,0,.77,2.83c9.23,27.58,14.4,55.38-.06,71.38,21.8-6.66,32.75-16.17,36.07-32.79C375.37,242.17,366.18,211,346.66,182.1Z"/><path class="cls-7" d="M290.54,123.63q-9.62-8.41-20.43-17.12a207.62,207.62,0,0,0-29,3.78A283.37,283.37,0,0,1,290.54,123.63Z"/><path class="cls-9" d="M333.64,225.34q2.7-7.23,5.05-13.8C335.05,215.51,332.23,218.63,333.64,225.34Z"/><path class="cls-8" d="M136,221.9c0-26.15-1.24-53.73,3.45-75.52-1.67,4-3.21,8.1-4.59,12.24l-20.79,70.83a111.59,111.59,0,0,0-3.22,13.07,173.27,173.27,0,0,0,22.56,32C134.05,258.42,136,240.22,136,221.9Z"/><path class="cls-10" d="M348.08,186c.09-1.38,1-4,1-5.54A11.22,11.22,0,0,0,349,178c-.49,2.08-1.05,4.23-1.65,6.44C348,185.34,347.5,185.12,348.08,186Z"/><path class="cls-11" d="M180.85,321.08l-2.4.28a72.14,72.14,0,0,1-23.18-.87,62.63,62.63,0,0,1-16.09-5.68c5.65,10.29,16.21,16.47,35.28,16.47,4.4,0,10.06-.1,16.56-.34-.42-.41-.85-.81-1.27-1.23Z"/><path class="cls-11" d="M299.55,313c17-1.08,28-6,34.8-13.46a248.63,248.63,0,0,1-32.3,7Q300.82,309.75,299.55,313Z"/><path class="cls-11" d="M157.15,113.94c-9.25,7.21-14.52,18.34-17.5,31.72l.18-.09A176.52,176.52,0,0,1,157.15,113.94Z"/><path class="cls-11" d="M139.83,145.57l-.18.09c-.05.24-.11.48-.16.72Z"/><path class="cls-10" d="M290.54,123.63c24.7,21.62,43.54,41.81,56.85,60.85.6-2.21,1.16-4.36,1.65-6.44C346.29,153.21,321.58,135.42,290.54,123.63Z"/><path class="cls-10" d="M180.85,321.08l8.9,8.63c.42.42.85.82,1.27,1.23,29.5-.45,72.83-6.13,101.44-14.95,2.75-1.18,5-2.84,7.09-3q1.27-3.27,2.5-6.46C273.05,311.23,233.51,314.94,180.85,321.08Z"/><path class="cls-11" d="M334.41,228.17a26.52,26.52,0,0,1-.77-2.83c-8.25,22-19,48.71-31.59,81.21a248.63,248.63,0,0,0,32.3-7C348.81,283.55,343.64,255.75,334.41,228.17Z"/><path class="cls-11" d="M178.45,321.36l2.4-.28L138,279.53c-1.55-1.62-3.06-3.28-4.55-5-.59,16.1.2,30.15,5.73,40.24a62.63,62.63,0,0,0,16.09,5.68A72.14,72.14,0,0,0,178.45,321.36Z"/><path class="cls-11" d="M142.89,144.11c37.93-17.15,70.47-28.32,98.25-33.82A314.19,314.19,0,0,0,187,105.07c-12.93,0-22.61,3.23-29.85,8.87a176.52,176.52,0,0,0-17.32,31.63C140.84,145.07,141.86,144.57,142.89,144.11Z"/><path class="cls-10" d="M338.69,211.54c3-7,4-12.28,9.39-25.56-.58-.86-.09-.64-.69-1.5C345.18,192.53,342.26,201.49,338.69,211.54Z"/><path class="cls-10" d="M290.54,123.63a283.37,283.37,0,0,0-49.4-13.34c-27.78,5.5-60.32,16.67-98.25,33.82-1,.46-2,1-3.06,1.46l-.34.81C134.8,168.17,136,195.75,136,221.9c0,18.32-2,36.52-2.59,52.67,1.49,1.68,3,3.34,4.55,5l42.85,41.55c52.66-6.14,92.2-9.85,121.2-14.53,12.61-32.5,23.34-59.16,31.59-81.21,2.93-6.38,3.32-8.74,5.05-13.8,3.57-10,6.49-19,8.7-27.06C334.08,165.44,315.24,145.25,290.54,123.63ZM321.47,232.7c-30,42-82.52,74.38-115.59,76.3a31.08,31.08,0,0,1-20.16-6.09C168.39,290.15,142.15,267,142.51,225c.45-52.71,38.42-87.53,56.26-93.11,23.64-8.44,91.47,28.56,123.53,85.73A14.06,14.06,0,0,1,321.47,232.7Z"/></g></g></svg>